<svg width="96" height="96" viewBox="0 0 96 96" fill="none" xmlns="http://www.w3.org/2000/svg">
  <defs>
    <radialGradient id="cyber-bg" cx="50%" cy="50%" r="60%">
      <stop offset="0%" stop-color="#191e2b"/>
      <stop offset="85%" stop-color="#23293b"/>
      <stop offset="100%" stop-color="#0f172a"/>
    </radialGradient>
    <linearGradient id="cyber-main" x1="0" y1="0" x2="96" y2="96" gradientUnits="userSpaceOnUse">
      <stop stop-color="#00f0ff"/>
      <stop offset="0.45" stop-color="#3b82f6"/>
      <stop offset="0.8" stop-color="#a21caf"/>
      <stop offset="1" stop-color="#f472b6"/>
    </linearGradient>
    <filter id="glow" x="-30%" y="-30%" width="160%" height="160%">
      <feGaussianBlur stdDeviation="4" result="blur"/>
      <feMerge>
        <feMergeNode in="blur"/>
        <feMergeNode in="SourceGraphic"/>
      </feMerge>
    </filter>
    <filter id="soft-glow" x="-30%" y="-30%" width="160%" height="160%">
      <feGaussianBlur stdDeviation="8" result="blur"/>
      <feMerge>
        <feMergeNode in="blur"/>
        <feMergeNode in="SourceGraphic"/>
      </feMerge>
    </filter>
  </defs>
  <!-- Background circle for contrast -->
  <circle cx="48" cy="48" r="46" fill="url(#cyber-bg)" />
  <!-- Futuristic shield shape -->
  <path 
    d="M48 16 Q73 22 78 44 Q79 62 48 80 Q17 62 18 44 Q23 22 48 16Z" 
    fill="url(#cyber-main)" 
    filter="url(#soft-glow)"
    opacity="0.85"
  />
  <!-- Central circle unit (infantry, glowing) -->
  <circle cx="48" cy="46" r="17" fill="#090e1a" stroke="url(#cyber-main)" stroke-width="4" filter="url(#glow)"/>
  <circle cx="48" cy="46" r="11" fill="url(#cyber-main)" opacity="0.6"/>
  <!-- Futuristic spark lines / circuit lines -->
  <g stroke="url(#cyber-main)" stroke-width="2" stroke-linecap="round" opacity="0.7">
    <line x1="48" y1="29" x2="48" y2="8"/>
    <line x1="63" y1="41" x2="82" y2="36"/>
    <line x1="33" y1="41" x2="14" y2="36"/>
    <line x1="58" y1="58" x2="72" y2="74"/>
    <line x1="38" y1="58" x2="24" y2="74"/>
  </g>
  <!-- Subtle shadow for depth -->
  <ellipse cx="48" cy="88" rx="26" ry="6" fill="#00f0ff" opacity="0.08"/>
</svg>